HIERARCHY
ROOT Hips
{
	OFFSET 0.000000 0.000000 0.000000
	CHANNELS 6 Xposition Yposition Zposition Zrotation Yrotation Xrotation 
	JOINT Spine1
	{
		OFFSET -0.013727 5.003763 -0.053727
		CHANNELS 3 Zrotation Yrotation Xrotation
		JOINT Spine2
		{
			OFFSET -0.000000 7.125301 -0.029825
			CHANNELS 3 Zrotation Yrotation Xrotation
			JOINT Chest
			{
				OFFSET -0.000001 7.550064 -0.815971
				CHANNELS 3 Zrotation Yrotation Xrotation
				JOINT Neck1
				{
					OFFSET -0.181676 26.311296 -0.553349
					CHANNELS 3 Zrotation Yrotation Xrotation
					JOINT Neck2
					{
						OFFSET -0.000003 7.709399 2.302586
						CHANNELS 3 Zrotation Yrotation Xrotation
						JOINT Head
						{
							OFFSET -0.000005 6.128913 1.953709
							CHANNELS 3 Zrotation Yrotation Xrotation
							JOINT HeadEnd
							{
								OFFSET 0.003598 16.065401 -1.835380
								CHANNELS 3 Zrotation Yrotation Xrotation
								End Site
								{
									OFFSET 0.000000 0.000000 0.000000
								}
							}
							JOINT Jaw
							{
								OFFSET 0.002637 0.475591 3.094940
								CHANNELS 3 Zrotation Yrotation Xrotation
								End Site
								{
									OFFSET 0.000000 0.000000 0.000000
								}
							}
							JOINT LeftEye
							{
								OFFSET 3.206380 5.380207 7.586883
								CHANNELS 3 Zrotation Yrotation Xrotation
								End Site
								{
									OFFSET 0.000000 0.000000 0.000000
								}
							}
							JOINT RightEye
							{
								OFFSET -3.222440 5.361867 7.558234
								CHANNELS 3 Zrotation Yrotation Xrotation
								End Site
								{
									OFFSET 0.000000 0.000000 0.000000
								}
							}
						}
					}
				}
				JOINT LeftShoulder
				{
					OFFSET 1.621652 23.237164 5.113413
					CHANNELS 3 Zrotation Yrotation Xrotation
					JOINT LeftArm
					{
						OFFSET 14.919845 0.000000 -5.502327
						CHANNELS 3 Zrotation Yrotation Xrotation
						JOINT LeftForeArm
						{
							OFFSET 28.739309 0.000003 -0.002588
							CHANNELS 3 Zrotation Yrotation Xrotation
							JOINT LeftHand
							{
								OFFSET 27.093983 -0.000003 0.002609
								CHANNELS 3 Zrotation Yrotation Xrotation
								JOINT LeftHandThumb1
								{
									OFFSET 2.276480 -1.392046 3.191413
									CHANNELS 3 Zrotation Yrotation Xrotation
									JOINT LeftHandThumb2
									{
										OFFSET 4.012841 -1.828126 1.641655
										CHANNELS 3 Zrotation Yrotation Xrotation
										JOINT LeftHandThumb3
										{
											OFFSET 2.798516 0.000002 -0.000003
											CHANNELS 3 Zrotation Yrotation Xrotation
											JOINT LeftHandThumbEnd
											{
												OFFSET 3.180791 -0.000003 0.000003
												CHANNELS 3 Zrotation Yrotation Xrotation
												End Site
												{
													OFFSET 0.000000 0.000000 0.000000
												}
											}
										}
									}
								}
								JOINT LeftHandIndex1
								{
									OFFSET 3.247553 -0.531998 2.296169
									CHANNELS 3 Zrotation Yrotation Xrotation
									JOINT LeftHandIndex2
									{
										OFFSET 6.364580 0.012062 0.178600
										CHANNELS 3 Zrotation Yrotation Xrotation
										JOINT LeftHandIndex3
										{
											OFFSET 3.662366 0.000001 -0.000000
											CHANNELS 3 Zrotation Yrotation Xrotation
											JOINT LeftHandIndex4
											{
												OFFSET 2.329242 0.000002 0.000004
												CHANNELS 3 Zrotation Yrotation Xrotation
												JOINT LeftHandIndexEnd
												{
													OFFSET 2.759619 -0.180539 -0.113024
													CHANNELS 3 Zrotation Yrotation Xrotation
													End Site
													{
														OFFSET 0.000000 0.000000 0.000000
													}
												}
											}
										}
									}
								}
								JOINT LeftHandMiddle1
								{
									OFFSET 3.163499 0.240981 1.000332
									CHANNELS 3 Zrotation Yrotation Xrotation
									JOINT LeftHandMiddle2
									{
										OFFSET 6.190778 -0.259277 -1.002549
										CHANNELS 3 Zrotation Yrotation Xrotation
										JOINT LeftHandMiddle3
										{
											OFFSET 4.356523 -0.000006 0.000000
											CHANNELS 3 Zrotation Yrotation Xrotation
											JOINT LeftHandMiddle4
											{
												OFFSET 2.996875 -0.000006 0.000001
												CHANNELS 3 Zrotation Yrotation Xrotation
												JOINT LeftHandMiddleEnd
												{
													OFFSET 2.304294 -0.294571 -0.031740
													CHANNELS 3 Zrotation Yrotation Xrotation
													End Site
													{
														OFFSET 0.000000 0.000000 0.000000
													}
												}
											}
										}
									}
								}
								JOINT LeftHandRing1
								{
									OFFSET 2.882641 -0.053651 -0.322543
									CHANNELS 3 Zrotation Yrotation Xrotation
									JOINT LeftHandRing2
									{
										OFFSET 5.854543 -0.486202 -1.373841
										CHANNELS 3 Zrotation Yrotation Xrotation
										JOINT LeftHandRing3
										{
											OFFSET 4.350580 -0.000001 0.000003
											CHANNELS 3 Zrotation Yrotation Xrotation
											JOINT LeftHandRing4
											{
												OFFSET 2.651324 0.000007 0.000003
												CHANNELS 3 Zrotation Yrotation Xrotation
												JOINT LeftHandRingEnd
												{
													OFFSET 1.936110 0.077686 -0.000070
													CHANNELS 3 Zrotation Yrotation Xrotation
													End Site
													{
														OFFSET 0.000000 0.000000 0.000000
													}
												}
											}
										}
									}
								}
								JOINT LeftHandPinky1
								{
									OFFSET 2.865500 -0.310004 -1.600378
									CHANNELS 3 Zrotation Yrotation Xrotation
									JOINT LeftHandPinky2
									{
										OFFSET 5.087852 -1.331141 -1.771231
										CHANNELS 3 Zrotation Yrotation Xrotation
										JOINT LeftHandPinky3
										{
											OFFSET 3.070975 0.000003 -0.000000
											CHANNELS 3 Zrotation Yrotation Xrotation
											JOINT LeftHandPinky4
											{
												OFFSET 1.549667 0.000000 0.000001
												CHANNELS 3 Zrotation Yrotation Xrotation
												JOINT LeftHandPinkyEnd
												{
													OFFSET 1.944895 -0.157802 0.057219
													CHANNELS 3 Zrotation Yrotation Xrotation
													End Site
													{
														OFFSET 0.000000 0.000000 0.000000
													}
												}
											}
										}
									}
								}
							}
						}
					}
				}
				JOINT RightShoulder
				{
					OFFSET -1.380118 23.180307 5.214158
					CHANNELS 3 Zrotation Yrotation Xrotation
					JOINT RightArm
					{
						OFFSET -15.037197 0.000013 -5.545604
						CHANNELS 3 Zrotation Yrotation Xrotation
						JOINT RightForeArm
						{
							OFFSET -28.736639 0.000002 -0.002597
							CHANNELS 3 Zrotation Yrotation Xrotation
							JOINT RightHand
							{
								OFFSET -27.133617 0.000000 0.002612
								CHANNELS 3 Zrotation Yrotation Xrotation
								JOINT RightHandThumb1
								{
									OFFSET -2.274037 -1.383989 3.163126
									CHANNELS 3 Zrotation Yrotation Xrotation
									JOINT RightHandThumb2
									{
										OFFSET -4.011429 -1.827468 1.640914
										CHANNELS 3 Zrotation Yrotation Xrotation
										JOINT RightHandThumb3
										{
											OFFSET -2.794934 -0.000003 -0.000003
											CHANNELS 3 Zrotation Yrotation Xrotation
											JOINT RightHandThumbEnd
											{
												OFFSET -3.183855 0.000003 -0.000000
												CHANNELS 3 Zrotation Yrotation Xrotation
												End Site
												{
													OFFSET 0.000000 0.000000 0.000000
												}
											}
										}
									}
								}
								JOINT RightHandIndex1
								{
									OFFSET -3.253269 -0.520059 2.282866
									CHANNELS 3 Zrotation Yrotation Xrotation
									JOINT RightHandIndex2
									{
										OFFSET -6.341918 0.012473 0.178265
										CHANNELS 3 Zrotation Yrotation Xrotation
										JOINT RightHandIndex3
										{
											OFFSET -3.654874 -0.000009 -0.000001
											CHANNELS 3 Zrotation Yrotation Xrotation
											JOINT RightHandIndex4
											{
												OFFSET -2.327586 -0.000001 0.000001
												CHANNELS 3 Zrotation Yrotation Xrotation
												JOINT RightHandIndexEnd
												{
													OFFSET -2.761789 -0.180656 -0.113078
													CHANNELS 3 Zrotation Yrotation Xrotation
													End Site
													{
														OFFSET 0.000000 0.000000 0.000000
													}
												}
											}
										}
									}
								}
								JOINT RightHandMiddle1
								{
									OFFSET -3.168106 0.246594 1.001031
									CHANNELS 3 Zrotation Yrotation Xrotation
									JOINT RightHandMiddle2
									{
										OFFSET -6.180830 -0.258836 -1.000896
										CHANNELS 3 Zrotation Yrotation Xrotation
										JOINT RightHandMiddle3
										{
											OFFSET -4.348906 -0.000000 -0.000000
											CHANNELS 3 Zrotation Yrotation Xrotation
											JOINT RightHandMiddle4
											{
												OFFSET -3.000242 -0.000003 -0.000003
												CHANNELS 3 Zrotation Yrotation Xrotation
												JOINT RightHandMiddleEnd
												{
													OFFSET -2.302518 -0.294371 -0.031706
													CHANNELS 3 Zrotation Yrotation Xrotation
													End Site
													{
														OFFSET 0.000000 0.000000 0.000000
													}
												}
											}
										}
									}
								}
								JOINT RightHandRing1
								{
									OFFSET -2.885693 -0.067952 -0.308858
									CHANNELS 3 Zrotation Yrotation Xrotation
									JOINT RightHandRing2
									{
										OFFSET -5.854196 -0.486132 -1.373732
										CHANNELS 3 Zrotation Yrotation Xrotation
										JOINT RightHandRing3
										{
											OFFSET -4.338814 -0.000003 -0.000001
											CHANNELS 3 Zrotation Yrotation Xrotation
											JOINT RightHandRing4
											{
												OFFSET -2.654905 -0.000004 0.000003
												CHANNELS 3 Zrotation Yrotation Xrotation
												JOINT RightHandRingEnd
												{
													OFFSET -1.933571 0.077524 -0.000052
													CHANNELS 3 Zrotation Yrotation Xrotation
													End Site
													{
														OFFSET 0.000000 0.000000 0.000000
													}
												}
											}
										}
									}
								}
								JOINT RightHandPinky1
								{
									OFFSET -2.866429 -0.342798 -1.584145
									CHANNELS 3 Zrotation Yrotation Xrotation
									JOINT RightHandPinky2
									{
										OFFSET -5.091370 -1.332053 -1.772384
										CHANNELS 3 Zrotation Yrotation Xrotation
										JOINT RightHandPinky3
										{
											OFFSET -3.062666 -0.000006 -0.000000
											CHANNELS 3 Zrotation Yrotation Xrotation
											JOINT RightHandPinky4
											{
												OFFSET -1.546527 0.000006 -0.000001
												CHANNELS 3 Zrotation Yrotation Xrotation
												JOINT RightHandPinkyEnd
												{
													OFFSET -1.945122 -0.157722 0.057211
													CHANNELS 3 Zrotation Yrotation Xrotation
													End Site
													{
														OFFSET 0.000000 0.000000 0.000000
													}
												}
											}
										}
									}
								}
							}
						}
					}
				}
			}
		}
	}
	JOINT LeftLeg
	{
		OFFSET 10.043214 -8.434526 2.595655
		CHANNELS 3 Zrotation Yrotation Xrotation
		JOINT LeftShin
		{
			OFFSET -0.000002 -43.221752 -0.802912
			CHANNELS 3 Zrotation Yrotation Xrotation
			JOINT LeftFoot
			{
				OFFSET 0.000001 -42.155094 -3.481524
				CHANNELS 3 Zrotation Yrotation Xrotation
				JOINT LeftToeBase
				{
					OFFSET -0.000000 -5.059475 13.231529
					CHANNELS 3 Zrotation Yrotation Xrotation
					JOINT LeftToeEnd
					{
						OFFSET -0.009607 -1.647616 6.513017
						CHANNELS 3 Zrotation Yrotation Xrotation
						End Site
						{
							OFFSET 0.000000 0.000000 0.000000
						}
					}
				}
			}
		}
	}
	JOINT RightLeg
	{
		OFFSET -10.047277 -8.295259 2.620317
		CHANNELS 3 Zrotation Yrotation Xrotation
		JOINT RightShin
		{
			OFFSET 0.000001 -43.362209 -0.805556
			CHANNELS 3 Zrotation Yrotation Xrotation
			JOINT RightFoot
			{
				OFFSET 0.000002 -42.117393 -3.478399
				CHANNELS 3 Zrotation Yrotation Xrotation
				JOINT RightToeBase
				{
					OFFSET -0.000001 -5.079609 13.284196
					CHANNELS 3 Zrotation Yrotation Xrotation
					JOINT RightToeEnd
					{
						OFFSET 0.009532 -1.634383 6.460591
						CHANNELS 3 Zrotation Yrotation Xrotation
						End Site
						{
							OFFSET 0.000000 0.000000 0.000000
						}
					}
				}
			}
		}
	}
}
MOTION
Frames: 4
Frame Time: 0.033333
2.419423 87.731110 5.302716 -2.166678 -0.814552 -7.750601 1.118209 0.735912 3.000383 -0.235282 1.055714 -3.419326 2.447095 -0.718123 5.384417 -4.107404 5.288439 8.798261 0.540753 2.744537 -3.763917 -1.849648 4.208247 -6.933380 0.000077 -0.000023 0.000006 0.019914 -0.071432 0.013240 0.763001 -3.791314 -10.862391 -0.739390 3.648555 -10.788852 -17.768549 -18.209305 7.551178 -27.979204 -28.345877 -32.183060 -177.749619 -68.948685 177.831528 -1.989411 -1.727852 7.850237 -5.882100 9.861276 0.702591 -10.936859 -0.360575 7.156197 0.000001 8.774812 -0.000001 -16.213589 18.071808 5.886925 -1.844032 2.498503 -2.507276 -10.163587 4.678940 4.621105 -20.975992 -0.000004 0.000002 -21.226255 2.451689 -3.593995 -0.000001 -0.000007 -0.000001 -1.362680 2.240797 -0.746323 -21.334887 0.584906 3.008322 -13.821195 -0.000003 0.000002 -23.887129 -0.249079 -0.839480 -60.833637 2.863114 -1.812645 -0.294025 1.679686 0.833255 -14.218189 0.093214 1.300579 -34.211998 -0.287565 0.967169 -20.033175 0.964534 1.212842 0.000000 0.000001 0.000000 -3.440384 0.788232 0.501656 -15.928165 -3.167308 2.999704 -6.338817 -0.000001 0.000002 -18.123407 3.648176 -4.905660 -0.000004 -0.000000 -0.000002 8.747425 24.855452 6.007389 57.865791 42.116901 5.117020 -176.901718 61.244083 -178.002930 -9.487823 0.193675 -12.310349 2.243540 -5.255030 -3.180157 14.282877 -0.826595 6.952495 0.000000 -12.690590 -0.000000 15.867133 -17.903131 2.663997 1.665664 -1.955919 -2.878296 4.727794 -4.170583 4.993921 11.020513 0.000003 -0.000001 12.109033 -3.735710 -2.866780 -0.000000 -0.000001 0.000000 1.291983 -1.928546 -1.498087 14.800113 0.567468 3.865604 14.242554 -1.341736 -6.660651 19.631937 0.143927 -0.648244 50.203487 -0.648438 -6.414997 0.353028 -1.511149 -0.031940 20.222767 3.684305 2.316629 18.787247 0.000002 0.000001 10.751610 -0.479868 1.397904 0.000000 0.000001 0.000001 3.273804 0.305946 -0.580108 21.486790 11.830360 2.266130 8.162918 0.000000 0.000001 18.399052 -3.798979 -4.940566 0.000004 0.000002 -0.000001 16.801298 9.383360 -29.496571 -0.418563 -0.596509 51.793777 -14.531733 7.524177 -11.968959 1.607339 -1.784131 1.586786 -0.000000 -0.000001 0.000002 -13.299383 -12.560659 -0.775397 0.175153 0.833814 46.672737 18.468382 -9.218993 -33.739178 -1.434837 0.980306 0.691315 -0.000000 0.000001 -0.000001 
2.567900 88.274750 5.672992 -2.575268 -0.811364 -7.032960 1.038679 0.731197 2.847713 -0.207880 1.081103 -3.454408 2.641094 -0.730758 5.191612 -4.094990 5.126882 8.289637 0.642992 2.917268 -3.759625 -1.624434 4.226971 -6.563058 0.000077 -0.000023 0.000006 0.023502 -0.020832 0.011902 0.756781 -3.737603 -10.815659 -0.723590 3.692327 -10.757103 -17.812733 -18.325062 7.479074 -27.933371 -28.011911 -31.258379 -178.850525 -68.997665 178.743515 -1.851023 -1.508118 9.106023 -5.882102 9.861279 0.702589 -10.936859 -0.360575 7.156197 0.000000 8.774814 -0.000001 -16.274143 17.980242 5.822331 -1.844030 2.498504 -2.507277 -10.163589 4.678939 4.621105 -20.975994 -0.000005 0.000003 -21.226255 2.451693 -3.593994 -0.000000 -0.000007 -0.000001 -1.362680 2.240796 -0.746323 -21.334892 0.584906 3.008321 -13.821197 -0.000000 0.000003 -23.887131 -0.249077 -0.839481 -60.759892 2.771853 -1.692220 -0.294024 1.679685 0.833254 -14.218194 0.093215 1.300580 -34.212006 -0.287562 0.967170 -20.033180 0.964536 1.212840 0.000000 0.000000 0.000000 -3.440384 0.788232 0.501655 -15.928169 -3.167307 2.999704 -6.338816 -0.000002 0.000002 -18.123415 3.648174 -4.905661 -0.000003 0.000001 -0.000001 9.224463 24.550238 5.949679 57.782734 41.408062 5.668914 -177.779327 61.050236 -178.787323 -9.882903 0.377981 -11.972046 2.243540 -5.255032 -3.180158 14.282873 -0.826591 6.952497 -0.000001 -12.690591 0.000000 15.798703 -17.780876 2.696877 1.665664 -1.955920 -2.878296 4.727794 -4.170582 4.993918 11.020513 0.000002 -0.000001 12.109031 -3.735708 -2.866777 -0.000000 0.000000 -0.000000 1.291985 -1.928548 -1.498088 14.800109 0.567469 3.865605 14.242553 -1.341734 -6.660648 19.631937 0.143927 -0.648240 50.304955 -0.673636 -6.383251 0.353027 -1.511150 -0.031940 20.222769 3.684306 2.316628 18.787245 0.000005 -0.000001 10.751610 -0.479867 1.397905 0.000000 0.000000 0.000000 3.273804 0.305946 -0.580110 21.486790 11.830365 2.266133 8.162916 0.000002 0.000001 18.399052 -3.798980 -4.940566 0.000004 -0.000001 -0.000000 17.009106 9.213816 -29.449923 -0.422206 -0.591411 50.784199 -14.494646 8.049401 -11.807872 1.612431 -1.766800 1.512725 0.000000 -0.000000 0.000002 -12.641812 -12.521001 -0.428349 0.119002 0.827497 44.637836 18.788683 -9.960948 -32.916706 -1.439819 0.976253 0.579301 -0.000000 0.000001 -0.000001 
2.892450 88.919098 6.360562 -3.105525 -0.657453 -6.104648 0.901703 0.721480 2.664069 -0.217766 0.981987 -3.519573 2.929366 -0.621047 4.902683 -3.773538 4.845588 7.458591 0.697041 3.008266 -3.751751 -1.383411 4.185670 -6.002365 0.000077 -0.000022 0.000006 0.027624 -0.017493 0.014069 0.757089 -3.727652 -10.787547 -0.716371 3.684990 -10.753626 -17.819002 -18.300104 7.425672 -28.795959 -27.540609 -29.432247 -179.922531 -68.494125 179.531281 -1.734185 -1.185902 11.163898 -5.882102 9.861279 0.702590 -10.936857 -0.360575 7.156197 -0.000002 8.774816 -0.000001 -16.387056 17.872957 5.766834 -1.844032 2.498503 -2.507276 -10.163589 4.678940 4.621103 -20.975994 -0.000004 0.000002 -21.226254 2.451694 -3.593994 0.000000 -0.000007 -0.000001 -1.362680 2.240796 -0.746323 -21.334890 0.584910 3.008319 -13.821195 -0.000004 0.000001 -23.887131 -0.249079 -0.839482 -60.805988 2.722193 -1.607960 -0.294024 1.679685 0.833254 -14.218192 0.093216 1.300577 -34.211998 -0.287567 0.967167 -20.033176 0.964535 1.212841 -0.000000 -0.000001 0.000000 -3.440387 0.788232 0.501654 -15.928167 -3.167306 2.999703 -6.338817 -0.000003 0.000000 -18.123411 3.648179 -4.905664 -0.000004 -0.000000 -0.000002 9.986773 24.112011 6.017747 57.640736 40.162270 6.477889 -178.695709 60.538284 -179.602036 -10.329733 0.368517 -11.258826 2.243541 -5.255033 -3.180156 14.282875 -0.826592 6.952495 -0.000003 -12.690591 -0.000001 15.769244 -17.805016 2.712164 1.665665 -1.955921 -2.878296 4.727794 -4.170584 4.993918 11.020510 0.000005 0.000001 12.109032 -3.735709 -2.866778 -0.000001 0.000000 -0.000002 1.291984 -1.928547 -1.498088 14.800113 0.567468 3.865603 14.242554 -1.341737 -6.660649 19.631941 0.143926 -0.648241 50.348236 -0.727019 -6.407341 0.353029 -1.511149 -0.031941 20.222769 3.684308 2.316629 18.787245 0.000005 0.000001 10.751612 -0.479868 1.397905 -0.000000 -0.000000 -0.000001 3.273804 0.305947 -0.580110 21.486795 11.830366 2.266135 8.162919 0.000001 -0.000001 18.399052 -3.798978 -4.940567 0.000004 0.000000 -0.000001 17.190487 9.267487 -29.460209 -0.433711 -0.565594 49.787857 -14.235084 8.301745 -11.789817 1.627719 -1.765500 1.282940 -0.000000 -0.000001 0.000002 -12.040412 -12.694450 0.357361 0.078382 0.812529 41.748356 19.220175 -10.883636 -31.790817 -1.444638 0.964220 0.461618 -0.000000 -0.000000 -0.000001 
3.078327 89.383163 6.974688 -3.545193 -0.370033 -5.023588 0.784383 0.758508 2.498311 -0.216295 0.955817 -3.538483 3.025972 -0.524025 4.517337 -3.496953 4.550362 6.236385 0.767354 2.971130 -3.792836 -1.077865 3.961225 -5.248832 0.000077 -0.000022 0.000006 0.029845 -0.023806 0.022896 0.764934 -3.717980 -10.768584 -0.723535 3.665602 -10.741078 -17.655157 -17.917177 7.262085 -31.220482 -26.786655 -26.412184 179.583588 -67.300186 179.696747 -1.356046 -0.867495 13.229754 -5.882102 9.861278 0.702592 -10.936858 -0.360575 7.156197 0.000000 8.774810 0.000000 -16.324713 17.851490 5.800078 -1.844030 2.498502 -2.507277 -10.163589 4.678940 4.621104 -20.975998 -0.000005 0.000003 -21.226254 2.451690 -3.593992 0.000000 -0.000005 -0.000000 -1.362680 2.240795 -0.746320 -21.334887 0.584906 3.008320 -13.821195 -0.000004 0.000002 -23.887129 -0.249078 -0.839480 -60.768059 2.672282 -1.569188 -0.294026 1.679686 0.833257 -14.218192 0.093213 1.300578 -34.212002 -0.287566 0.967170 -20.033180 0.964537 1.212842 0.000000 0.000000 0.000000 -3.440386 0.788232 0.501656 -15.928167 -3.167305 2.999703 -6.338817 -0.000003 0.000001 -18.123413 3.648177 -4.905660 -0.000004 -0.000002 -0.000001 10.608120 23.633110 6.078580 57.914742 38.018280 7.559768 179.713394 59.648441 179.087845 -10.707859 0.282877 -10.093452 2.243541 -5.255032 -3.180156 14.282877 -0.826593 6.952495 -0.000004 -12.690592 0.000001 15.702633 -17.864988 2.749898 1.665666 -1.955920 -2.878296 4.727792 -4.170582 4.993921 11.020513 0.000003 -0.000002 12.109030 -3.735708 -2.866779 -0.000000 -0.000001 0.000000 1.291985 -1.928547 -1.498088 14.800111 0.567469 3.865603 14.242551 -1.341733 -6.660648 19.631939 0.143928 -0.648244 50.422295 -0.742932 -6.338879 0.353028 -1.511149 -0.031938 20.222771 3.684306 2.316625 18.787243 0.000005 -0.000003 10.751609 -0.479867 1.397904 -0.000001 -0.000001 0.000001 3.273805 0.305947 -0.580109 21.486790 11.830363 2.266131 8.162916 0.000003 0.000000 18.399050 -3.798980 -4.940567 0.000003 0.000001 0.000000 17.297255 9.662175 -29.934460 -0.473109 -0.612706 49.118195 -13.862302 8.101975 -11.719195 1.635101 -1.829367 0.956319 -0.000000 0.000000 0.000002 -11.644591 -13.508872 0.721144 0.052401 0.824714 39.520161 19.710342 -11.629488 -30.886606 -1.446622 0.945656 0.388474 0.000000 0.000000 -0.000001 
